<?xml version="1.0" encoding="UTF-8"?>
<!DOCTYPE svg PUBLIC "-//W3C//DTD SVG 1.1//EN" "http://www.w3.org/Graphics/SVG/1.1/DTD/svg11.dtd">
<svg xmlns="http://www.w3.org/2000/svg" version="1.1" width="758px" height="477px" style="shape-rendering:geometricPrecision; text-rendering:geometricPrecision; image-rendering:optimizeQuality; fill-rule:evenodd; clip-rule:evenodd" xmlns:xlink="http://www.w3.org/1999/xlink">
<g><path style="opacity:1" fill="#150528" d="M -0.5,-0.5 C 252.167,-0.5 504.833,-0.5 757.5,-0.5C 757.5,158.5 757.5,317.5 757.5,476.5C 504.833,476.5 252.167,476.5 -0.5,476.5C -0.5,317.5 -0.5,158.5 -0.5,-0.5 Z"/></g>
<g><path style="opacity:1" fill="#f6f5f7" d="M 439.5,53.5 C 451.118,55.085 454.452,61.085 449.5,71.5C 444.768,76.27 439.768,76.6034 434.5,72.5C 428.605,64.1852 430.271,57.8519 439.5,53.5 Z"/></g>
<g><path style="opacity:1" fill="#321258" d="M 459.5,85.5 C 454.968,85.1818 450.634,85.5151 446.5,86.5C 445.167,86.5 443.833,86.5 442.5,86.5C 442.918,85.7784 443.584,85.2784 444.5,85C 449.684,84.1837 454.684,84.3503 459.5,85.5 Z"/></g>
<g><path style="opacity:1" fill="#400f78" d="M 423.5,88.5 C 419.933,90.5566 416.766,93.2232 414,96.5C 408.633,105.602 404.633,115.268 402,125.5C 396.618,139.784 390.951,153.784 385,167.5C 384.616,171.653 383.616,175.653 382,179.5C 379.049,185.62 376.549,191.953 374.5,198.5C 373.048,200.739 371.215,202.739 369,204.5C 367.121,202.987 364.954,202.321 362.5,202.5C 362.5,200.833 362.5,199.167 362.5,197.5C 365.264,186.968 369.097,176.968 374,167.5C 375.669,158.89 378.669,150.89 383,143.5C 384.616,139.653 385.616,135.653 386,131.5C 390.127,122.234 393.96,112.9 397.5,103.5C 402.928,95.5863 410.261,90.0863 419.5,87C 421.167,86.3333 422.833,86.3333 424.5,87C 423.944,87.3826 423.611,87.8826 423.5,88.5 Z"/></g>
<g><path style="opacity:1" fill="#2e0b56" d="M 423.5,88.5 C 423.611,87.8826 423.944,87.3826 424.5,87C 422.833,86.3333 421.167,86.3333 419.5,87C 410.261,90.0863 402.928,95.5863 397.5,103.5C 403.478,91.3502 413.145,85.6835 426.5,86.5C 425.995,87.9185 424.995,88.5852 423.5,88.5 Z"/></g>
<g><path style="opacity:1" fill="#541e91" d="M 446.5,86.5 C 450.634,85.5151 454.968,85.1818 459.5,85.5C 475.706,88.5428 487.539,97.5428 495,112.5C 498.632,125.029 497.965,137.363 493,149.5C 485.52,167.281 478.853,185.281 473,203.5C 471.478,205.741 470.145,208.074 469,210.5C 466.8,218.963 464.133,227.296 461,235.5C 460.617,236.056 460.117,236.389 459.5,236.5C 460.823,229.962 459.656,229.296 456,234.5C 454.171,232.107 454.337,229.773 456.5,227.5C 455.833,226.167 455.167,224.833 454.5,223.5C 455.167,222.167 455.833,220.833 456.5,219.5C 455.833,218.167 455.167,216.833 454.5,215.5C 455.167,214.167 455.833,212.833 456.5,211.5C 455.833,210.167 455.167,208.833 454.5,207.5C 457.044,204.947 457.044,202.447 454.5,200C 455.591,197.936 455.758,195.769 455,193.5C 454.617,194.056 454.117,194.389 453.5,194.5C 461.119,174.366 468.452,154.032 475.5,133.5C 475.833,133.5 476.167,133.5 476.5,133.5C 476.81,134.738 477.31,134.738 478,133.5C 480.039,118.233 473.873,108.066 459.5,103C 456.183,102.502 452.85,102.335 449.5,102.5C 449.803,97.57 449.469,92.7367 448.5,88C 452.5,87.6667 456.5,87.3333 460.5,87C 455.845,86.5008 451.179,86.3342 446.5,86.5 Z"/></g>
<g><path style="opacity:1" fill="#5a2299" d="M 442.5,86.5 C 443.833,86.5 445.167,86.5 446.5,86.5C 451.179,86.3342 455.845,86.5008 460.5,87C 456.5,87.3333 452.5,87.6667 448.5,88C 449.469,92.7367 449.803,97.57 449.5,102.5C 452.85,102.335 456.183,102.502 459.5,103C 473.873,108.066 480.039,118.233 478,133.5C 477.31,134.738 476.81,134.738 476.5,133.5C 476.666,129.486 476.499,125.486 476,121.5C 475.392,119.934 474.558,118.6 473.5,117.5C 471.438,113.105 468.104,110.105 463.5,108.5C 458.96,105.704 453.96,104.871 448.5,106C 444.609,106.533 441.609,108.366 439.5,111.5C 435.717,114.243 433.217,117.91 432,122.5C 419.028,157.054 406.361,191.721 394,226.5C 393.617,227.056 393.117,227.389 392.5,227.5C 396.691,215.554 400.191,203.221 403,190.5C 403.667,176.833 403.667,163.167 403,149.5C 398.056,161.723 393.389,174.057 389,186.5C 387.476,188.898 385.976,191.231 384.5,193.5C 387.163,185.174 389.663,176.84 392,168.5C 392.667,167.833 393.333,167.167 394,166.5C 396.461,161.113 398.127,155.446 399,149.5C 400.145,147.074 401.478,144.741 403,142.5C 406.389,129.761 410.722,117.428 416,105.5C 422.553,95.8224 431.386,89.4891 442.5,86.5 Z"/></g>
<g><path style="opacity:1" fill="#280d46" d="M 463.5,108.5 C 455.061,106.534 447.061,107.534 439.5,111.5C 441.609,108.366 444.609,106.533 448.5,106C 453.96,104.871 458.96,105.704 463.5,108.5 Z"/></g>
<g><path style="opacity:1" fill="#34135b" d="M 473.5,117.5 C 474.558,118.6 475.392,119.934 476,121.5C 476.499,125.486 476.666,129.486 476.5,133.5C 476.167,133.5 475.833,133.5 475.5,133.5C 475.752,128.012 475.085,122.678 473.5,117.5 Z"/></g>
<g><path style="opacity:1" fill="#5f25a2" d="M 392.5,227.5 C 390.336,236.998 387.003,245.998 382.5,254.5C 380.137,255.941 378.47,257.941 377.5,260.5C 379.026,255.09 380.859,249.756 383,244.5C 383.833,230.821 383.666,217.154 382.5,203.5C 381.792,205.745 380.792,207.745 379.5,209.5C 379.5,208.167 379.5,206.833 379.5,205.5C 380.944,201.999 382.11,198.332 383,194.5C 383.383,193.944 383.883,193.611 384.5,193.5C 385.976,191.231 387.476,188.898 389,186.5C 393.389,174.057 398.056,161.723 403,149.5C 403.667,163.167 403.667,176.833 403,190.5C 400.191,203.221 396.691,215.554 392.5,227.5 Z"/></g>
<g><path style="opacity:1" fill="#3c0e71" d="M 249.5,217.5 C 243.406,217.407 240.406,214.407 240.5,208.5C 242.718,198.74 246.551,189.74 252,181.5C 257.581,176.363 264.081,173.029 271.5,171.5C 276.603,172.869 276.27,174.036 270.5,175C 264.508,180.472 260.008,186.972 257,194.5C 254.953,202.369 252.453,210.036 249.5,217.5 Z"/></g>
<g><path style="opacity:1" fill="#3f186a" d="M 550.5,181.5 C 544.441,181.254 538.441,181.587 532.5,182.5C 532.611,181.883 532.944,181.383 533.5,181C 539.349,180.182 545.015,180.348 550.5,181.5 Z"/></g>
<g><path style="opacity:1" fill="#3f0e75" d="M 482.5,252.5 C 480.66,255.302 478.993,258.302 477.5,261.5C 476.707,261.931 475.873,262.265 475,262.5C 473.403,261.115 471.57,260.449 469.5,260.5C 469.5,258.5 469.5,256.5 469.5,254.5C 469.814,251.053 470.648,247.72 472,244.5C 478.339,228.147 484.672,211.813 491,195.5C 495.993,189.097 502.16,184.263 509.5,181C 512.833,180.333 516.167,180.333 519.5,181C 517.892,183.609 515.559,184.942 512.5,185C 503.173,195.027 497.34,206.86 495,220.5C 493.414,222.67 492.08,225.004 491,227.5C 489.252,236.302 486.418,244.635 482.5,252.5 Z"/></g>
<g><path style="opacity:1" fill="#6128a2" d="M 550.5,181.5 C 553.421,182.696 556.421,183.696 559.5,184.5C 561.129,186.196 560.796,187.196 558.5,187.5C 539.894,179.434 524.56,183.768 512.5,200.5C 511.708,199.3 511.708,197.967 512.5,196.5C 515.629,192.869 518.963,189.369 522.5,186C 525.561,183.965 528.895,182.799 532.5,182.5C 538.441,181.587 544.441,181.254 550.5,181.5 Z"/></g>
<g><path style="opacity:1" fill="#44137b" d="M 559.5,184.5 C 565.936,185.939 570.603,189.605 573.5,195.5C 571.037,193.539 568.703,191.372 566.5,189C 565.5,188.333 564.5,188.333 563.5,189C 576.003,198.511 580.837,211.011 578,226.5C 573.758,237.229 569.924,248.062 566.5,259C 566.667,259.833 566.833,260.667 567,261.5C 567.902,259.569 569.069,257.903 570.5,256.5C 570.188,259.273 569.022,261.607 567,263.5C 566.654,266.576 565.988,269.576 565,272.5C 564.617,273.056 564.117,273.389 563.5,273.5C 564.16,271.184 564.827,268.851 565.5,266.5C 565.019,264.269 564.352,264.102 563.5,266C 557.175,282.482 551.175,298.982 545.5,315.5C 566.833,315.5 588.167,315.5 609.5,315.5C 609.768,317.099 609.434,318.432 608.5,319.5C 608.5,318.5 608.5,317.5 608.5,316.5C 589.473,316.218 570.473,316.551 551.5,317.5C 551.859,319.766 551.192,321.599 549.5,323C 551.278,325.135 551.945,327.635 551.5,330.5C 542.161,330.666 532.827,330.5 523.5,330C 536.865,295.094 549.865,259.928 562.5,224.5C 564.628,216.304 562.628,209.304 556.5,203.5C 555.599,201.273 553.933,200.273 551.5,200.5C 551.617,198.516 550.95,196.85 549.5,195.5C 552.039,192.851 552.039,190.184 549.5,187.5C 550.242,186.713 551.075,186.047 552,185.5C 554.007,186.669 556.173,187.335 558.5,187.5C 560.796,187.196 561.129,186.196 559.5,184.5 Z"/></g>
<g><path style="opacity:1" fill="#4b1885" d="M 558.5,187.5 C 556.173,187.335 554.007,186.669 552,185.5C 551.075,186.047 550.242,186.713 549.5,187.5C 552.039,190.184 552.039,192.851 549.5,195.5C 550.95,196.85 551.617,198.516 551.5,200.5C 553.933,200.273 555.599,201.273 556.5,203.5C 550.019,199.776 543.019,198.609 535.5,200C 530.158,203.172 526.491,207.672 524.5,213.5C 524.439,215.721 525.105,216.054 526.5,214.5C 526.655,217.716 525.655,220.383 523.5,222.5C 523.741,219.001 522.908,218.668 521,221.5C 515.593,235.332 510.427,249.332 505.5,263.5C 503.541,265.554 502.041,267.887 501,270.5C 499.086,269.324 499.252,268.324 501.5,267.5C 501.023,266.522 500.357,265.689 499.5,265C 501.957,263.846 501.957,262.512 499.5,261C 501.957,259.846 501.957,258.512 499.5,257C 501.957,255.846 501.957,254.512 499.5,253C 501.957,251.846 501.957,250.512 499.5,249C 501.957,247.846 501.957,246.512 499.5,245C 501.957,243.846 501.957,242.512 499.5,241C 501.689,240.323 502.022,239.156 500.5,237.5C 503.719,225.886 507.385,214.386 511.5,203C 511.164,201.97 510.497,201.47 509.5,201.5C 509.75,199.326 510.75,197.659 512.5,196.5C 511.708,197.967 511.708,199.3 512.5,200.5C 524.56,183.768 539.894,179.434 558.5,187.5 Z"/></g>
<g><path style="opacity:1" fill="#4c1b85" d="M 322.5,178.5 C 335.306,187.465 340.473,199.798 338,215.5C 334.592,226.815 330.759,237.982 326.5,249C 326.164,250.03 325.497,250.53 324.5,250.5C 324.336,247.813 324.503,245.146 325,242.5C 328.929,234.835 332.262,226.835 335,218.5C 337.115,206.908 335.115,196.241 329,186.5C 327.292,184.457 325.292,182.79 323,181.5C 322.517,180.552 322.351,179.552 322.5,178.5 Z"/></g>
<g><path style="opacity:1" fill="#321257" d="M 504.5,214.5 C 503.586,218.936 501.919,222.936 499.5,226.5C 500.414,222.064 502.081,218.064 504.5,214.5 Z"/></g>
<g><path style="opacity:1" fill="#652ba9" d="M 573.5,195.5 C 576.787,198.404 578.787,202.071 579.5,206.5C 581.541,217.487 580.541,228.153 576.5,238.5C 574.802,244.637 572.802,250.637 570.5,256.5C 569.069,257.903 567.902,259.569 567,261.5C 566.833,260.667 566.667,259.833 566.5,259C 569.924,248.062 573.758,237.229 578,226.5C 580.837,211.011 576.003,198.511 563.5,189C 564.5,188.333 565.5,188.333 566.5,189C 568.703,191.372 571.037,193.539 573.5,195.5 Z"/></g>
<g><path style="opacity:1" fill="#3b0d6f" d="M 362.5,197.5 C 362.5,199.167 362.5,200.833 362.5,202.5C 364.954,202.321 367.121,202.987 369,204.5C 371.215,202.739 373.048,200.739 374.5,198.5C 369.569,212.958 364.235,227.292 358.5,241.5C 357.239,243.29 355.739,244.957 354,246.5C 352.211,244.771 350.044,244.104 347.5,244.5C 347.5,241.833 347.5,239.167 347.5,236.5C 351.706,223.715 356.206,211.048 361,198.5C 361.383,197.944 361.883,197.611 362.5,197.5 Z"/></g>
<g><path style="opacity:1" fill="#521e8d" d="M 379.5,205.5 C 379.5,206.833 379.5,208.167 379.5,209.5C 370.743,233.732 362.076,257.898 353.5,282C 352.59,283.749 351.257,284.916 349.5,285.5C 358.853,261.948 367.353,237.948 375,213.5C 375.916,210.443 377.416,207.776 379.5,205.5 Z"/></g>
<g><path style="opacity:1" fill="#360c66" d="M 240.5,208.5 C 240.406,214.407 243.406,217.407 249.5,217.5C 245.993,226.01 242.659,234.677 239.5,243.5C 238.542,243.953 237.708,244.619 237,245.5C 231.052,245.385 228.552,242.385 229.5,236.5C 232.879,226.918 236.545,217.584 240.5,208.5 Z"/></g>
<g><path style="opacity:1" fill="#3d1867" d="M 579.5,206.5 C 580.268,207.263 580.768,208.263 581,209.5C 581.667,215.833 581.667,222.167 581,228.5C 580.148,232.264 578.648,235.597 576.5,238.5C 580.541,228.153 581.541,217.487 579.5,206.5 Z"/></g>
<g><path style="opacity:1" fill="#431578" d="M 321.5,178.5 C 317.388,178.057 313.721,176.557 310.5,174C 304.903,172.544 299.237,172.211 293.5,173C 280.963,176.208 272.13,183.708 267,195.5C 263.969,205.433 260.469,215.099 256.5,224.5C 245.718,254.655 234.385,284.822 222.5,315C 195.997,315.168 169.663,315.668 143.5,316.5C 142.167,319.167 140.833,321.833 139.5,324.5C 139.5,322.5 139.5,320.5 139.5,318.5C 139.12,316.302 139.787,314.635 141.5,313.5C 168.175,313.833 194.842,313.5 221.5,312.5C 222.127,311.583 222.461,310.583 222.5,309.5C 224.852,300.117 228.352,291.117 233,282.5C 235.268,273.088 238.601,264.088 243,255.5C 245.221,245.983 248.554,236.983 253,228.5C 256.493,215.468 260.826,202.802 266,190.5C 275.817,174.677 289.984,168.177 308.5,171C 313.472,172.489 317.805,174.989 321.5,178.5 Z"/></g>
<g><path style="opacity:1" fill="#360c66" d="M 347.5,236.5 C 347.5,239.167 347.5,241.833 347.5,244.5C 350.044,244.104 352.211,244.771 354,246.5C 355.739,244.957 357.239,243.29 358.5,241.5C 354.015,253.104 349.682,264.771 345.5,276.5C 343.82,279.174 341.487,281.174 338.5,282.5C 337.167,279.833 335.833,279.833 334.5,282.5C 333.526,280.257 333.192,277.924 333.5,275.5C 337.709,262.327 342.376,249.327 347.5,236.5 Z"/></g>
<g><path style="opacity:1" fill="#2e0a56" d="M 229.5,236.5 C 228.552,242.385 231.052,245.385 237,245.5C 237.708,244.619 238.542,243.953 239.5,243.5C 235.359,256.595 230.359,269.261 224.5,281.5C 223.766,282.929 222.599,283.929 221,284.5C 219.121,282.987 216.954,282.321 214.5,282.5C 214.5,280.5 214.5,278.5 214.5,276.5C 218.904,262.836 223.904,249.502 229.5,236.5 Z"/></g>
<g><path style="opacity:1" fill="#47177d" d="M 277.5,326.5 C 268.273,350.929 259.106,375.262 250,399.5C 246.197,417.715 252.031,431.715 267.5,441.5C 289.863,450.245 306.696,443.912 318,422.5C 322.803,409.923 327.303,397.257 331.5,384.5C 332.117,384.389 332.617,384.056 333,383.5C 339.468,364.431 346.134,345.431 353,326.5C 362.076,304.883 370.242,282.883 377.5,260.5C 378.47,257.941 380.137,255.941 382.5,254.5C 362.65,309.552 342.483,364.552 322,419.5C 315.06,437.97 301.727,447.303 282,447.5C 269.388,447.277 259.555,441.944 252.5,431.5C 251.559,427.616 250.059,423.949 248,420.5C 246.038,412.486 246.038,404.486 248,396.5C 250.018,391.157 252.018,385.824 254,380.5C 258.184,373.792 260.851,366.459 262,358.5C 264.603,353.441 266.603,348.107 268,342.5C 271.23,338.816 272.897,334.483 273,329.5C 277.874,320.043 281.541,310.043 284,299.5C 287.061,295.71 288.728,291.377 289,286.5C 293.224,278.055 296.89,269.388 300,260.5C 304.744,244.204 310.41,228.204 317,212.5C 317.868,199.696 311.868,192.696 299,191.5C 293.817,191.091 289.817,193.091 287,197.5C 280.583,215.089 273.583,232.422 266,249.5C 265.654,252.576 264.988,255.576 264,258.5C 254.383,283.193 244.883,307.86 235.5,332.5C 202.5,332.5 169.5,332.5 136.5,332.5C 136.232,330.901 136.566,329.568 137.5,328.5C 137.5,329.5 137.5,330.5 137.5,331.5C 169.84,331.833 202.174,331.5 234.5,330.5C 243.95,305.725 252.95,280.725 261.5,255.5C 262.117,255.389 262.617,255.056 263,254.5C 269.979,235.899 276.646,217.233 283,198.5C 291.18,188.544 301.014,186.711 312.5,193C 319.137,198.711 321.304,205.877 319,214.5C 305.215,252.042 291.381,289.375 277.5,326.5 Z"/></g>
<g><path style="opacity:1" fill="#7b37c9" d="M 261.5,255.5 C 252.95,280.725 243.95,305.725 234.5,330.5C 202.174,331.5 169.84,331.833 137.5,331.5C 137.5,330.5 137.5,329.5 137.5,328.5C 137.5,327.833 137.833,327.5 138.5,327.5C 138.5,328.5 138.5,329.5 138.5,330.5C 162.833,330.5 187.167,330.5 211.5,330.5C 211.5,326.167 211.5,321.833 211.5,317.5C 188.86,316.542 166.193,316.209 143.5,316.5C 169.663,315.668 195.997,315.168 222.5,315C 234.385,284.822 245.718,254.655 256.5,224.5C 257.976,222.231 259.476,219.898 261,217.5C 261.5,230.162 261.667,242.829 261.5,255.5 Z"/></g>
<g><path style="opacity:1" fill="#380d68" d="M 482.5,252.5 C 478.36,265.43 473.694,278.097 468.5,290.5C 466.37,291.964 465.037,293.964 464.5,296.5C 461.436,296.072 458.436,295.406 455.5,294.5C 456.461,291.574 457.127,288.574 457.5,285.5C 459.753,280.061 461.586,274.394 463,268.5C 466.237,264.792 467.904,260.458 468,255.5C 468.383,254.944 468.883,254.611 469.5,254.5C 469.5,256.5 469.5,258.5 469.5,260.5C 471.57,260.449 473.403,261.115 475,262.5C 475.873,262.265 476.707,261.931 477.5,261.5C 478.993,258.302 480.66,255.302 482.5,252.5 Z"/></g>
<g><path style="opacity:1" fill="#7130bb" d="M 321.5,178.5 C 321.833,178.5 322.167,178.5 322.5,178.5C 322.351,179.552 322.517,180.552 323,181.5C 325.292,182.79 327.292,184.457 329,186.5C 335.115,196.241 337.115,206.908 335,218.5C 332.262,226.835 328.929,234.835 325,242.5C 324.503,245.146 324.336,247.813 324.5,250.5C 320.872,256.849 317.706,263.516 315,270.5C 306.135,294.762 297.468,319.096 289,343.5C 288.124,345.758 286.957,347.758 285.5,349.5C 285.703,347.61 285.037,346.11 283.5,345C 285.957,343.846 285.957,342.512 283.5,341C 285.957,339.846 285.957,338.512 283.5,337C 285.957,335.846 285.957,334.512 283.5,333C 285.957,331.846 285.957,330.512 283.5,329C 285.957,327.846 285.957,326.512 283.5,325C 285.957,323.846 285.957,322.512 283.5,321C 285.902,319.529 285.736,318.029 283,316.5C 281.392,320.056 279.559,323.389 277.5,326.5C 291.381,289.375 305.215,252.042 319,214.5C 321.304,205.877 319.137,198.711 312.5,193C 301.014,186.711 291.18,188.544 283,198.5C 276.646,217.233 269.979,235.899 263,254.5C 262.617,255.056 262.117,255.389 261.5,255.5C 261.667,242.829 261.5,230.162 261,217.5C 259.476,219.898 257.976,222.231 256.5,224.5C 260.469,215.099 263.969,205.433 267,195.5C 272.13,183.708 280.963,176.208 293.5,173C 299.237,172.211 304.903,172.544 310.5,174C 313.721,176.557 317.388,178.057 321.5,178.5 Z"/></g>
<g><path style="opacity:1" fill="#5a229a" d="M 459.5,236.5 C 457.021,242.207 455.187,248.207 454,254.5C 438.235,295.137 422.902,336.137 408,377.5C 406.925,385.013 409.425,391.013 415.5,395.5C 416.058,396.79 417.058,397.623 418.5,398C 422.358,398.81 426.024,398.643 429.5,397.5C 432.803,396.318 435.636,394.318 438,391.5C 439.896,386.615 442.063,381.948 444.5,377.5C 445.222,377.082 445.722,376.416 446,375.5C 446.333,376.167 446.667,376.833 447,377.5C 447.375,373.533 448.041,369.533 449,365.5C 449.333,365.167 449.667,364.833 450,364.5C 450.167,365.667 450.333,366.833 450.5,368C 449.224,380.391 449.224,392.724 450.5,405C 448.845,406.444 448.178,408.278 448.5,410.5C 424.69,426.008 405.19,421.674 390,397.5C 389.621,394.97 388.787,392.637 387.5,390.5C 386.59,380.477 387.924,370.811 391.5,361.5C 394.977,349.216 399.144,337.216 404,325.5C 408.221,318.846 410.888,311.512 412,303.5C 413,302.167 414,300.833 415,299.5C 424.803,274.09 433.803,248.423 442,222.5C 446.885,213.699 450.718,204.366 453.5,194.5C 454.117,194.389 454.617,194.056 455,193.5C 455.758,195.769 455.591,197.936 454.5,200C 457.044,202.447 457.044,204.947 454.5,207.5C 455.167,208.833 455.833,210.167 456.5,211.5C 455.833,212.833 455.167,214.167 454.5,215.5C 455.167,216.833 455.833,218.167 456.5,219.5C 455.833,220.833 455.167,222.167 454.5,223.5C 455.167,224.833 455.833,226.167 456.5,227.5C 454.337,229.773 454.171,232.107 456,234.5C 459.656,229.296 460.823,229.962 459.5,236.5 Z"/></g>
<g><path style="opacity:1" fill="#321258" d="M 481.5,276.5 C 479.92,282.925 477.587,288.925 474.5,294.5C 476.08,288.075 478.413,282.075 481.5,276.5 Z"/></g>
<g><path style="opacity:1" fill="#48197e" d="M 349.5,285.5 C 348.859,291.78 346.859,297.447 343.5,302.5C 344.486,298.887 345.319,295.221 346,291.5C 346.876,289.242 348.043,287.242 349.5,285.5 Z"/></g>
<g><path style="opacity:1" fill="#250846" d="M 214.5,276.5 C 214.5,278.5 214.5,280.5 214.5,282.5C 216.954,282.321 219.121,282.987 221,284.5C 222.599,283.929 223.766,282.929 224.5,281.5C 224.067,284.166 223.567,286.832 223,289.5C 220.258,294.977 218.092,300.644 216.5,306.5C 192.5,306.5 168.5,306.5 144.5,306.5C 144.483,302.209 145.483,298.209 147.5,294.5C 167.833,294.5 188.167,294.5 208.5,294.5C 210.312,288.397 212.312,282.397 214.5,276.5 Z"/></g>
<g><path style="opacity:1" fill="#2f0b59" d="M 619.5,297.5 C 614.208,296.171 608.542,295.504 602.5,295.5C 595.146,295.598 587.812,295.932 580.5,296.5C 580.5,299.5 580.5,302.5 580.5,305.5C 592.5,305.5 604.5,305.5 616.5,305.5C 598.007,306.497 579.341,306.83 560.5,306.5C 559.987,302.21 560.987,298.377 563.5,295C 582.497,294.5 601.497,294.333 620.5,294.5C 620.737,295.791 620.404,296.791 619.5,297.5 Z"/></g>
<g><path style="opacity:1" fill="#3e0e74" d="M 619.5,297.5 C 618.801,300.31 617.801,302.977 616.5,305.5C 604.5,305.5 592.5,305.5 580.5,305.5C 580.5,302.5 580.5,299.5 580.5,296.5C 587.812,295.932 595.146,295.598 602.5,295.5C 608.542,295.504 614.208,296.171 619.5,297.5 Z"/></g>
<g><path style="opacity:1" fill="#551f93" d="M 509.5,201.5 C 510.497,201.47 511.164,201.97 511.5,203C 507.385,214.386 503.719,225.886 500.5,237.5C 502.022,239.156 501.689,240.323 499.5,241C 501.957,242.512 501.957,243.846 499.5,245C 501.957,246.512 501.957,247.846 499.5,249C 501.957,250.512 501.957,251.846 499.5,253C 501.957,254.512 501.957,255.846 499.5,257C 501.957,258.512 501.957,259.846 499.5,261C 501.957,262.512 501.957,263.846 499.5,265C 500.357,265.689 501.023,266.522 501.5,267.5C 499.252,268.324 499.086,269.324 501,270.5C 502.041,267.887 503.541,265.554 505.5,263.5C 510.427,249.332 515.593,235.332 521,221.5C 522.908,218.668 523.741,219.001 523.5,222.5C 510.958,258.231 498.125,293.898 485,329.5C 476.914,349.924 469.247,370.59 462,391.5C 459.283,396.59 456.283,401.59 453,406.5C 451.629,408.041 450.129,409.375 448.5,410.5C 448.178,408.278 448.845,406.444 450.5,405C 449.224,392.724 449.224,380.391 450.5,368C 450.333,366.833 450.167,365.667 450,364.5C 449.667,364.833 449.333,365.167 449,365.5C 448.041,369.533 447.375,373.533 447,377.5C 446.667,376.833 446.333,376.167 446,375.5C 445.722,376.416 445.222,377.082 444.5,377.5C 445.149,373.049 446.316,368.716 448,364.5C 452.458,352.487 457.291,340.653 462.5,329C 463.8,321.427 466.467,314.427 470.5,308C 471.677,303.402 473.01,298.902 474.5,294.5C 477.587,288.925 479.92,282.925 481.5,276.5C 487.809,259.923 493.809,243.257 499.5,226.5C 501.919,222.936 503.586,218.936 504.5,214.5C 506.734,210.478 508.401,206.144 509.5,201.5 Z"/></g>
<g><path style="opacity:1" fill="#682aae" d="M 377.5,260.5 C 370.242,282.883 362.076,304.883 353,326.5C 346.134,345.431 339.468,364.431 333,383.5C 332.617,384.056 332.117,384.389 331.5,384.5C 331.667,371.496 331.5,358.496 331,345.5C 329.953,348.859 328.453,351.859 326.5,354.5C 328.571,347.594 330.238,340.594 331.5,333.5C 332.496,333.586 333.329,333.252 334,332.5C 334.012,327.188 335.845,322.688 339.5,319C 342.014,313.779 343.347,308.279 343.5,302.5C 346.859,297.447 348.859,291.78 349.5,285.5C 351.257,284.916 352.59,283.749 353.5,282C 362.076,257.898 370.743,233.732 379.5,209.5C 380.792,207.745 381.792,205.745 382.5,203.5C 383.666,217.154 383.833,230.821 383,244.5C 380.859,249.756 379.026,255.09 377.5,260.5 Z"/></g>
<g><path style="opacity:1" fill="#2e0a57" d="M 333.5,275.5 C 333.192,277.924 333.526,280.257 334.5,282.5C 335.833,279.833 337.167,279.833 338.5,282.5C 341.487,281.174 343.82,279.174 345.5,276.5C 336.825,300.227 327.825,323.56 318.5,346.5C 317.308,348.878 315.641,350.878 313.5,352.5C 311.675,351.349 309.675,350.682 307.5,350.5C 307.5,348.167 307.5,345.833 307.5,343.5C 312.213,330.201 317.046,316.868 322,303.5C 323.37,300.032 325.036,296.698 327,293.5C 326.954,290.367 327.954,287.7 330,285.5C 330.988,282.576 331.654,279.576 332,276.5C 332.383,275.944 332.883,275.611 333.5,275.5 Z"/></g>
<g><path style="opacity:1" fill="#250945" d="M 222.5,309.5 C 222.461,310.583 222.127,311.583 221.5,312.5C 194.842,313.5 168.175,313.833 141.5,313.5C 167.67,312.833 194.003,312.167 220.5,311.5C 220.855,310.478 221.522,309.811 222.5,309.5 Z"/></g>
<g><path style="opacity:1" fill="#401a6c" d="M 550.5,310.5 C 571.474,312.489 592.807,313.156 614.5,312.5C 614.598,314.553 613.931,316.22 612.5,317.5C 612.5,316.167 612.5,314.833 612.5,313.5C 591.5,313.5 570.5,313.5 549.5,313.5C 549.263,312.209 549.596,311.209 550.5,310.5 Z"/></g>
<g><path style="opacity:1" fill="#310b5d" d="M 457.5,285.5 C 457.127,288.574 456.461,291.574 455.5,294.5C 458.436,295.406 461.436,296.072 464.5,296.5C 465.037,293.964 466.37,291.964 468.5,290.5C 464.023,303.266 459.357,315.933 454.5,328.5C 452.691,330.099 451.358,332.099 450.5,334.5C 447.016,337.029 443.683,336.695 440.5,333.5C 441.309,331.929 441.643,330.262 441.5,328.5C 446.048,313.855 451.381,299.522 457.5,285.5 Z"/></g>
<g><path style="opacity:1" fill="#642aa7" d="M 556.5,203.5 C 562.628,209.304 564.628,216.304 562.5,224.5C 549.865,259.928 536.865,295.094 523.5,330C 532.827,330.5 542.161,330.666 551.5,330.5C 569.512,330.833 587.512,330.5 605.5,329.5C 606.251,326.065 607.251,322.732 608.5,319.5C 609.434,318.432 609.768,317.099 609.5,315.5C 588.167,315.5 566.833,315.5 545.5,315.5C 551.175,298.982 557.175,282.482 563.5,266C 564.352,264.102 565.019,264.269 565.5,266.5C 564.827,268.851 564.16,271.184 563.5,273.5C 558.713,285.633 554.38,297.966 550.5,310.5C 549.596,311.209 549.263,312.209 549.5,313.5C 570.5,313.5 591.5,313.5 612.5,313.5C 612.5,314.833 612.5,316.167 612.5,317.5C 611.9,321.366 610.566,325.033 608.5,328.5C 607.069,329.78 606.402,331.447 606.5,333.5C 577.833,333.5 549.167,333.5 520.5,333.5C 520.5,332.167 520.5,330.833 520.5,329.5C 533.034,295.067 545.867,260.734 559,226.5C 562.732,217.247 560.566,209.914 552.5,204.5C 552.389,203.883 552.056,203.383 551.5,203C 546.167,201 540.833,201 535.5,203C 534.944,203.383 534.611,203.883 534.5,204.5C 530.417,206.65 527.75,209.983 526.5,214.5C 525.105,216.054 524.439,215.721 524.5,213.5C 526.491,207.672 530.158,203.172 535.5,200C 543.019,198.609 550.019,199.776 556.5,203.5 Z"/></g>
<g><path style="opacity:1" fill="#2b104c" d="M 552.5,204.5 C 546.5,203.167 540.5,203.167 534.5,204.5C 534.611,203.883 534.944,203.383 535.5,203C 540.833,201 546.167,201 551.5,203C 552.056,203.383 552.389,203.883 552.5,204.5 Z"/></g>
<g><path style="opacity:1" fill="#893fdc" d="M 143.5,316.5 C 166.193,316.209 188.86,316.542 211.5,317.5C 211.5,321.833 211.5,326.167 211.5,330.5C 187.167,330.5 162.833,330.5 138.5,330.5C 138.5,329.5 138.5,328.5 138.5,327.5C 139.11,326.609 139.443,325.609 139.5,324.5C 140.833,321.833 142.167,319.167 143.5,316.5 Z"/></g>
<g><path style="opacity:1" fill="#3f1074" d="M 608.5,319.5 C 607.251,322.732 606.251,326.065 605.5,329.5C 587.512,330.5 569.512,330.833 551.5,330.5C 551.945,327.635 551.278,325.135 549.5,323C 551.192,321.599 551.859,319.766 551.5,317.5C 570.473,316.551 589.473,316.218 608.5,316.5C 608.5,317.5 608.5,318.5 608.5,319.5 Z"/></g>
<g><path style="opacity:1" fill="#7734c3" d="M 285.5,349.5 C 279.548,368.421 272.714,387.088 265,405.5C 264.11,414.082 266.943,421.249 273.5,427C 275.407,428.122 277.407,428.955 279.5,429.5C 281.369,430.165 283.369,430.831 285.5,431.5C 284.975,432.192 284.308,432.692 283.5,433C 285.957,434.512 285.957,435.846 283.5,437C 285.957,438.512 285.957,439.846 283.5,441C 284.167,441.667 284.833,442.333 285.5,443C 279.4,443.623 273.4,443.123 267.5,441.5C 252.031,431.715 246.197,417.715 250,399.5C 259.106,375.262 268.273,350.929 277.5,326.5C 279.559,323.389 281.392,320.056 283,316.5C 285.736,318.029 285.902,319.529 283.5,321C 285.957,322.512 285.957,323.846 283.5,325C 285.957,326.512 285.957,327.846 283.5,329C 285.957,330.512 285.957,331.846 283.5,333C 285.957,334.512 285.957,335.846 283.5,337C 285.957,338.512 285.957,339.846 283.5,341C 285.957,342.512 285.957,343.846 283.5,345C 285.037,346.11 285.703,347.61 285.5,349.5 Z"/></g>
<g><path style="opacity:1" fill="#47187d" d="M 343.5,302.5 C 343.347,308.279 342.014,313.779 339.5,319C 335.845,322.688 334.012,327.188 334,332.5C 333.329,333.252 332.496,333.586 331.5,333.5C 335.621,324.004 338.955,314.17 341.5,304C 341.836,302.97 342.503,302.47 343.5,302.5 Z"/></g>
<g><path style="opacity:1" fill="#320c5f" d="M 139.5,318.5 C 139.5,320.5 139.5,322.5 139.5,324.5C 139.443,325.609 139.11,326.609 138.5,327.5C 137.833,327.5 137.5,327.833 137.5,328.5C 136.566,329.568 136.232,330.901 136.5,332.5C 169.5,332.5 202.5,332.5 235.5,332.5C 235.5,332.833 235.5,333.167 235.5,333.5C 201.833,333.5 168.167,333.5 134.5,333.5C 134.5,332.5 134.5,331.5 134.5,330.5C 135.896,326.925 137.063,323.259 138,319.5C 138.383,318.944 138.883,318.611 139.5,318.5 Z"/></g>
<g><path style="opacity:1" fill="#20073c" d="M 134.5,330.5 C 134.5,331.5 134.5,332.5 134.5,333.5C 168.167,333.5 201.833,333.5 235.5,333.5C 201.671,334.498 167.671,334.832 133.5,334.5C 133.232,332.901 133.566,331.568 134.5,330.5 Z"/></g>
<g><path style="opacity:1" fill="#321255" d="M 608.5,328.5 C 608.643,330.262 608.309,331.929 607.5,333.5C 577.841,334.5 548.174,334.833 518.5,334.5C 518.402,332.447 519.069,330.78 520.5,329.5C 520.5,330.833 520.5,332.167 520.5,333.5C 549.167,333.5 577.833,333.5 606.5,333.5C 606.402,331.447 607.069,329.78 608.5,328.5 Z"/></g>
<g><path style="opacity:1" fill="#6e2fb7" d="M 331.5,384.5 C 327.303,397.257 322.803,409.923 318,422.5C 306.696,443.912 289.863,450.245 267.5,441.5C 273.4,443.123 279.4,443.623 285.5,443C 284.833,442.333 284.167,441.667 283.5,441C 285.957,439.846 285.957,438.512 283.5,437C 285.957,435.846 285.957,434.512 283.5,433C 284.308,432.692 284.975,432.192 285.5,431.5C 283.369,430.831 281.369,430.165 279.5,429.5C 287.981,430.259 295.148,427.592 301,421.5C 309.547,399.091 318.047,376.758 326.5,354.5C 328.453,351.859 329.953,348.859 331,345.5C 331.5,358.496 331.667,371.496 331.5,384.5 Z"/></g>
<g><path style="opacity:1" fill="#2a0950" d="M 441.5,328.5 C 441.643,330.262 441.309,331.929 440.5,333.5C 443.683,336.695 447.016,337.029 450.5,334.5C 451.358,332.099 452.691,330.099 454.5,328.5C 447.056,347.723 439.889,367.056 433,386.5C 428.903,392.031 424.069,392.864 418.5,389C 425.687,368.6 433.353,348.433 441.5,328.5 Z"/></g>
<g><path style="opacity:1" fill="#3a1467" d="M 391.5,361.5 C 387.924,370.811 386.59,380.477 387.5,390.5C 386.346,384.013 386.179,377.346 387,370.5C 388.047,367.141 389.547,364.141 391.5,361.5 Z"/></g>
<g><path style="opacity:1" fill="#311155" d="M 415.5,395.5 C 420.061,396.811 424.728,397.478 429.5,397.5C 426.024,398.643 422.358,398.81 418.5,398C 417.058,397.623 416.058,396.79 415.5,395.5 Z"/></g>
<g><path style="opacity:1" fill="#481880" d="M 324.5,250.5 C 322.942,256.344 321.275,262.178 319.5,268C 313.95,281.71 308.783,295.543 304,309.5C 301.954,311.7 300.954,314.367 301,317.5C 290.793,343.1 281.127,369.1 272,395.5C 265.669,405.359 266.169,414.859 273.5,424C 280.153,427.117 286.82,427.284 293.5,424.5C 296.195,424.067 298.362,422.734 300,420.5C 301.072,416.453 302.239,412.453 303.5,408.5C 306.504,399.904 309.338,391.237 312,382.5C 318.512,366.789 324.512,350.789 330,334.5C 330.383,333.944 330.883,333.611 331.5,333.5C 330.238,340.594 328.571,347.594 326.5,354.5C 318.047,376.758 309.547,399.091 301,421.5C 295.148,427.592 287.981,430.259 279.5,429.5C 277.407,428.955 275.407,428.122 273.5,427C 266.943,421.249 264.11,414.082 265,405.5C 272.714,387.088 279.548,368.421 285.5,349.5C 286.957,347.758 288.124,345.758 289,343.5C 297.468,319.096 306.135,294.762 315,270.5C 317.706,263.516 320.872,256.849 324.5,250.5 Z"/></g>
<g><path style="opacity:1" fill="#250846" d="M 307.5,343.5 C 307.5,345.833 307.5,348.167 307.5,350.5C 309.675,350.682 311.675,351.349 313.5,352.5C 315.641,350.878 317.308,348.878 318.5,346.5C 317.803,350.956 316.636,355.29 315,359.5C 307.861,376.128 301.528,393.128 296,410.5C 294.323,413.853 292.157,416.853 289.5,419.5C 286.572,420.484 283.572,420.817 280.5,420.5C 280.678,417.784 281.178,415.117 282,412.5C 291.167,389.545 299.667,366.545 307.5,343.5 Z"/></g>
<g><path style="opacity:1" fill="#361062" d="M 303.5,408.5 C 302.239,412.453 301.072,416.453 300,420.5C 298.362,422.734 296.195,424.067 293.5,424.5C 294.315,423.163 295.482,422.163 297,421.5C 299.097,416.984 301.263,412.65 303.5,408.5 Z"/></g>
</svg>
