<?xml version="1.0" encoding="UTF-8" standalone="no"?>
<!-- Uploaded to: SVG Repo, www.svgrepo.com, Generator: SVG Repo Mixer Tools -->

<svg
   fill="#000000"
   width="800px"
   height="800px"
   viewBox="0 0 512 512"
   version="1.1"
   id="svg1"
   sodipodi:docname="pulse.svg"
   inkscape:version="1.3.2 (091e20e, 2023-11-25, custom)"
   xmlns:inkscape="http://www.inkscape.org/namespaces/inkscape"
   xmlns:sodipodi="http://sodipodi.sourceforge.net/DTD/sodipodi-0.dtd"
   xmlns="http://www.w3.org/2000/svg"
   xmlns:svg="http://www.w3.org/2000/svg">
  <defs
     id="defs1" />
  <sodipodi:namedview
     id="namedview1"
     pagecolor="#ffffff"
     bordercolor="#000000"
     borderopacity="0.25"
     inkscape:showpageshadow="2"
     inkscape:pageopacity="0.0"
     inkscape:pagecheckerboard="0"
     inkscape:deskcolor="#d1d1d1"
     inkscape:zoom="0.71062499"
     inkscape:cx="484.08092"
     inkscape:cy="626.20933"
     inkscape:window-width="1450"
     inkscape:window-height="1250"
     inkscape:window-x="4825"
     inkscape:window-y="262"
     inkscape:window-maximized="0"
     inkscape:current-layer="svg1" />
  <title
     id="title1">ionicons-v5-p</title>
  <path
     d="m 386.75,304 h -39.22 l -28.35,-85.06 c -4.97614,-14.91709 -26.23252,-14.45802 -30.56,0.66 l -44.51,155.76 -52.33,-314 C 190.52917,53.88738 184.20857,48.316558 176.63802,48.01422 169.06747,47.711882 162.32276,52.760926 160.48,60.11 L 99.51,304 H 48 c -8.836562,0 -15.999993,7.16344 -15.999993,16 0,8.83656 7.163431,16 15.999993,16 h 64 c 7.3412,-10e-4 13.73976,-4.99793 15.52,-12.12 l 45.34,-181.37 51.36,308.12 c 1.21914,7.39018 7.40197,12.94558 14.88,13.37 h 0.91 c 7.13711,-0.006 13.4073,-4.73807 15.37,-11.6 l 49.8,-174.28 15.64,46.94 c 2.17807,6.53371 8.29282,10.94051 15.18,10.94 h 50.75 c 0,0 -0.12642,-31.62463 0,-32 z"
     id="path1"
     sodipodi:nodetypes="ccccccsccssscccccccccccc" />
  <path
     d="m 379.48185,294.86439 h -39.22 l -28.35,-85.06 c -4.97614,-14.91709 -26.23252,-14.45802 -30.56,0.66 l -44.51,155.76 -52.33,-314.000001 c -1.25083,-7.47262 -7.57143,-13.043442 -15.14198,-13.34578 -7.57055,-0.302338 -14.31526,4.746706 -16.15802,12.09578 L 92.241856,294.86439 h -51.51 c -8.836562,0 -15.999993,7.16344 -15.999993,16 0,8.83656 7.163431,16 15.999993,16 h 64.000004 c 7.3412,-0.001 13.73976,-4.99793 15.52,-12.12 l 45.33999,-181.37 51.36,308.12 c 1.21914,7.39018 7.40197,12.94558 14.88,13.37 h 0.91 c 7.13711,-0.006 13.4073,-4.73807 15.37,-11.6 l 49.8,-174.28 15.64,46.94 c 2.17807,6.53371 8.29282,10.94051 15.18,10.94 h 50.75 c 0,0 -0.12642,-31.62463 0,-32 z"
     id="path1-4"
     sodipodi:nodetypes="ccccccsccssscccccccccccc"
     style="fill:#74a1c0;fill-opacity:1" />
  <text
     xml:space="preserve"
     style="font-size:122.88px;white-space:pre;inline-size:433.308;display:inline;fill:#000080;stroke-width:1.28;stroke-dasharray:none"
     x="16.557617"
     y="300.58444"
     id="text1"
     transform="matrix(1.1543637,0,0,2.3316564,-9.6305854,-328.49759)"><tspan
       x="16.557617"
       y="300.58444"
       id="tspan3"><tspan
         style="font-style:italic;font-weight:bold;font-stretch:condensed;font-family:Arial;-inkscape-font-specification:'Arial Bold Italic Condensed';fill:#f9f9f9;stroke:#000000;stroke-linecap:square"
         id="tspan2">PULSE 4</tspan></tspan></text>
</svg>
