<?xml version="1.0" encoding="UTF-8" standalone="no"?>
<svg
   viewBox="0 0 48 48"
   width="144px"
   height="144px"
   version="1.1"
   id="svg2"
   sodipodi:docname="icons8-cog-144.svg"
   inkscape:version="1.3.2 (091e20e, 2023-11-25, custom)"
   xmlns:inkscape="http://www.inkscape.org/namespaces/inkscape"
   xmlns:sodipodi="http://sodipodi.sourceforge.net/DTD/sodipodi-0.dtd"
   xmlns="http://www.w3.org/2000/svg"
   xmlns:svg="http://www.w3.org/2000/svg">
  <defs
     id="defs2" />
  <sodipodi:namedview
     id="namedview2"
     pagecolor="#ffffff"
     bordercolor="#000000"
     borderopacity="0.25"
     inkscape:showpageshadow="2"
     inkscape:pageopacity="0.0"
     inkscape:pagecheckerboard="0"
     inkscape:deskcolor="#d1d1d1"
     inkscape:zoom="7.8958333"
     inkscape:cx="71.936675"
     inkscape:cy="72"
     inkscape:window-width="2560"
     inkscape:window-height="1351"
     inkscape:window-x="-9"
     inkscape:window-y="-9"
     inkscape:window-maximized="1"
     inkscape:current-layer="svg2" />
  <path
     fill="#607D8B"
     d="M39.6,27.2c0.1-0.7,0.2-1.4,0.2-2.2s-0.1-1.5-0.2-2.2l4.5-3.2c0.4-0.3,0.6-0.9,0.3-1.4L40,10.8c-0.3-0.5-0.8-0.7-1.3-0.4l-5,2.3c-1.2-0.9-2.4-1.6-3.8-2.2l-0.5-5.5c-0.1-0.5-0.5-0.9-1-0.9h-8.6c-0.5,0-1,0.4-1,0.9l-0.5,5.5c-1.4,0.6-2.7,1.3-3.8,2.2l-5-2.3c-0.5-0.2-1.1,0-1.3,0.4l-4.3,7.4c-0.3,0.5-0.1,1.1,0.3,1.4l4.5,3.2c-0.1,0.7-0.2,1.4-0.2,2.2s0.1,1.5,0.2,2.2L4,30.4c-0.4,0.3-0.6,0.9-0.3,1.4L8,39.2c0.3,0.5,0.8,0.7,1.3,0.4l5-2.3c1.2,0.9,2.4,1.6,3.8,2.2l0.5,5.5c0.1,0.5,0.5,0.9,1,0.9h8.6c0.5,0,1-0.4,1-0.9l0.5-5.5c1.4-0.6,2.7-1.3,3.8-2.2l5,2.3c0.5,0.2,1.1,0,1.3-0.4l4.3-7.4c0.3-0.5,0.1-1.1-0.3-1.4L39.6,27.2z M24,35c-5.5,0-10-4.5-10-10c0-5.5,4.5-10,10-10c5.5,0,10,4.5,10,10C34,30.5,29.5,35,24,35z"
     id="path1"
     style="fill:#9caeb7;fill-opacity:1" />
  <path
     fill="#455A64"
     d="M24,13c-6.6,0-12,5.4-12,12c0,6.6,5.4,12,12,12s12-5.4,12-12C36,18.4,30.6,13,24,13z M24,30c-2.8,0-5-2.2-5-5c0-2.8,2.2-5,5-5s5,2.2,5,5C29,27.8,26.8,30,24,30z"
     id="path2"
     style="fill:#d2dade;fill-opacity:1" />
</svg>
