<?xml version="1.0" encoding="UTF-8" standalone="no"?>
<!-- Svg Vector Icons : http://www.onlinewebfonts.com/icon -->

<svg
   version="1.1"
   x="0px"
   y="0px"
   viewBox="0 0 28.858399 27.01195"
   enable-background="new 0 0 256 256"
   xml:space="preserve"
   id="svg2"
   sodipodi:docname="Logout.svg"
   inkscape:version="1.3.2 (091e20e, 2023-11-25, custom)"
   width="28.858398"
   height="27.01195"
   xmlns:inkscape="http://www.inkscape.org/namespaces/inkscape"
   xmlns:sodipodi="http://sodipodi.sourceforge.net/DTD/sodipodi-0.dtd"
   xmlns="http://www.w3.org/2000/svg"
   xmlns:svg="http://www.w3.org/2000/svg"><defs
   id="defs2" /><sodipodi:namedview
   id="namedview2"
   pagecolor="#ffffff"
   bordercolor="#000000"
   borderopacity="0.25"
   inkscape:showpageshadow="2"
   inkscape:pageopacity="0.0"
   inkscape:pagecheckerboard="0"
   inkscape:deskcolor="#d1d1d1"
   inkscape:zoom="4.4414062"
   inkscape:cx="117.98065"
   inkscape:cy="-84.995602"
   inkscape:window-width="2560"
   inkscape:window-height="1351"
   inkscape:window-x="-9"
   inkscape:window-y="-9"
   inkscape:window-maximized="1"
   inkscape:current-layer="svg2" />
<metadata
   id="metadata1"> Svg Vector Icons : http://www.onlinewebfonts.com/icon </metadata>
<g
   id="g2"
   transform="matrix(-0.12228135,0,0,0.12228135,30.081212,-2.1521518)"
   style="fill:#ffffff"><g
     id="g1"
     style="fill:#ffffff"><path
       fill="#000000"
       d="m 246,123.7 -51.8,51 V 152.3 H 134.8 V 97.2 h 59.4 V 72.8 Z M 167.6,54.4 H 119.7 V 36.8 H 167 c 8.7,0 15.8,8.2 15.8,18.2 V 86.6 H 167.5 Z M 89.9,238.5 20.6,207 C 14.7,207 10,199.9 10,191.2 V 64.9 C 10,56.2 14.7,49.1 20.6,49.1 L 89.9,17.6 c 5.9,0 10.7,7.1 10.7,15.8 v 189.4 c 0,8.6 -4.8,15.7 -10.7,15.7 z M 72.4,109.6 c -7.2,0 -13.1,5.9 -13.1,13.1 0,7.3 5.9,13.1 13.1,13.1 7.3,0 13.1,-5.9 13.1,-13.1 0,-7.2 -5.9,-13.1 -13.1,-13.1 z m 95.2,50.5 h 15.3 V 201 c 0,10.1 -7.1,18.3 -15.8,18.3 h -47.4 v -17.7 h 47.9 z"
       id="path1"
       style="fill:#ffffff" /></g></g>
</svg>
